<?xml version="1.0" encoding="us-ascii" standalone="no"?><svg xmlns="http://www.w3.org/2000/svg" xmlns:xlink="http://www.w3.org/1999/xlink" contentStyleType="text/css" height="560px" preserveAspectRatio="none" style="width:780px;height:560px;background:#FFFFFF;" version="1.1" viewBox="0 0 780 560" width="780px" zoomAndPan="magnify"><defs/><g><line style="stroke:#181818;stroke-width:0.5;stroke-dasharray:5.0,5.0;" x1="23" x2="23" y1="81.4883" y2="479.2148"/><line style="stroke:#181818;stroke-width:0.5;stroke-dasharray:5.0,5.0;" x1="138.5" x2="138.5" y1="81.4883" y2="479.2148"/><line style="stroke:#181818;stroke-width:0.5;stroke-dasharray:5.0,5.0;" x1="274.5" x2="274.5" y1="81.4883" y2="479.2148"/><line style="stroke:#181818;stroke-width:0.5;stroke-dasharray:5.0,5.0;" x1="511.5" x2="511.5" y1="81.4883" y2="479.2148"/><line style="stroke:#181818;stroke-width:0.5;stroke-dasharray:5.0,5.0;" x1="686" x2="686" y1="81.4883" y2="479.2148"/><text fill="#000000" font-family="sans-serif" font-size="14" lengthAdjust="spacing" textLength="31" x="5" y="78.5352">User</text><ellipse cx="23.5" cy="13.5" fill="#E2E2F0" rx="8" ry="8" style="stroke:#181818;stroke-width:0.5;"/><path d="M23.5,21.5 L23.5,48.5 M10.5,29.5 L36.5,29.5 M23.5,48.5 L10.5,63.5 M23.5,48.5 L36.5,63.5 " fill="none" style="stroke:#181818;stroke-width:0.5;"/><text fill="#000000" font-family="sans-serif" font-size="14" lengthAdjust="spacing" textLength="31" x="5" y="491.75">User</text><ellipse cx="23.5" cy="503.2031" fill="#E2E2F0" rx="8" ry="8" style="stroke:#181818;stroke-width:0.5;"/><path d="M23.5,511.2031 L23.5,538.2031 M10.5,519.2031 L36.5,519.2031 M23.5,538.2031 L10.5,553.2031 M23.5,538.2031 L36.5,553.2031 " fill="none" style="stroke:#181818;stroke-width:0.5;"/><rect fill="#E2E2F0" height="30.4883" rx="2.5" ry="2.5" style="stroke:#181818;stroke-width:0.5;" width="36" x="120.5" y="50"/><text fill="#000000" font-family="sans-serif" font-size="14" lengthAdjust="spacing" textLength="22" x="127.5" y="70.5352">API</text><rect fill="#E2E2F0" height="30.4883" rx="2.5" ry="2.5" style="stroke:#181818;stroke-width:0.5;" width="36" x="120.5" y="478.2148"/><text fill="#000000" font-family="sans-serif" font-size="14" lengthAdjust="spacing" textLength="22" x="127.5" y="498.75">API</text><rect fill="#E2E2F0" height="30.4883" rx="2.5" ry="2.5" style="stroke:#181818;stroke-width:0.5;" width="84" x="232.5" y="50"/><text fill="#000000" font-family="sans-serif" font-size="14" lengthAdjust="spacing" textLength="70" x="239.5" y="70.5352">Controller</text><rect fill="#E2E2F0" height="30.4883" rx="2.5" ry="2.5" style="stroke:#181818;stroke-width:0.5;" width="84" x="232.5" y="478.2148"/><text fill="#000000" font-family="sans-serif" font-size="14" lengthAdjust="spacing" textLength="70" x="239.5" y="498.75">Controller</text><rect fill="#E2E2F0" height="30.4883" rx="2.5" ry="2.5" style="stroke:#181818;stroke-width:0.5;" width="54" x="484.5" y="50"/><text fill="#000000" font-family="sans-serif" font-size="14" lengthAdjust="spacing" textLength="40" x="491.5" y="70.5352">Shard</text><rect fill="#E2E2F0" height="30.4883" rx="2.5" ry="2.5" style="stroke:#181818;stroke-width:0.5;" width="54" x="484.5" y="478.2148"/><text fill="#000000" font-family="sans-serif" font-size="14" lengthAdjust="spacing" textLength="40" x="491.5" y="498.75">Shard</text><rect fill="#E2E2F0" height="30.4883" rx="2.5" ry="2.5" style="stroke:#181818;stroke-width:0.5;" width="63" x="655" y="50"/><text fill="#000000" font-family="sans-serif" font-size="14" lengthAdjust="spacing" textLength="49" x="662" y="70.5352">Worker</text><rect fill="#E2E2F0" height="30.4883" rx="2.5" ry="2.5" style="stroke:#181818;stroke-width:0.5;" width="63" x="655" y="478.2148"/><text fill="#000000" font-family="sans-serif" font-size="14" lengthAdjust="spacing" textLength="49" x="662" y="498.75">Worker</text><polygon fill="#181818" points="126.5,108.7988,136.5,112.7988,126.5,116.7988,130.5,112.7988" style="stroke:#181818;stroke-width:1.0;"/><line style="stroke:#181818;stroke-width:1.0;" x1="23.5" x2="132.5" y1="112.7988" y2="112.7988"/><text fill="#000000" font-family="sans-serif" font-size="13" lengthAdjust="spacing" textLength="81" x="30.5" y="108.0566">Send request</text><polygon fill="#181818" points="262.5,138.1094,272.5,142.1094,262.5,146.1094,266.5,142.1094" style="stroke:#181818;stroke-width:1.0;"/><line style="stroke:#181818;stroke-width:1.0;" x1="138.5" x2="268.5" y1="142.1094" y2="142.1094"/><text fill="#000000" font-family="sans-serif" font-size="13" lengthAdjust="spacing" textLength="71" x="145.5" y="137.3672">Create task</text><polygon fill="#181818" points="499.5,167.4199,509.5,171.4199,499.5,175.4199,503.5,171.4199" style="stroke:#181818;stroke-width:1.0;"/><line style="stroke:#181818;stroke-width:1.0;" x1="274.5" x2="505.5" y1="171.4199" y2="171.4199"/><text fill="#000000" font-family="sans-serif" font-size="13" lengthAdjust="spacing" textLength="185" x="281.5" y="166.6777">Query if shards have capacity</text><polygon fill="#181818" points="285.5,196.7305,275.5,200.7305,285.5,204.7305,281.5,200.7305" style="stroke:#181818;stroke-width:1.0;"/><line style="stroke:#181818;stroke-width:1.0;" x1="279.5" x2="510.5" y1="200.7305" y2="200.7305"/><text fill="#000000" font-family="sans-serif" font-size="13" lengthAdjust="spacing" textLength="147" x="291.5" y="195.9883">Response with capacity</text><line style="stroke:#181818;stroke-width:1.0;" x1="274.5" x2="316.5" y1="230.041" y2="230.041"/><line style="stroke:#181818;stroke-width:1.0;" x1="316.5" x2="316.5" y1="230.041" y2="243.041"/><line style="stroke:#181818;stroke-width:1.0;" x1="275.5" x2="316.5" y1="243.041" y2="243.041"/><polygon fill="#181818" points="285.5,239.041,275.5,243.041,285.5,247.041,281.5,243.041" style="stroke:#181818;stroke-width:1.0;"/><text fill="#000000" font-family="sans-serif" font-size="13" lengthAdjust="spacing" textLength="223" x="281.5" y="225.2988">Select available shard or create new</text><polygon fill="#181818" points="499.5,268.3516,509.5,272.3516,499.5,276.3516,503.5,272.3516" style="stroke:#181818;stroke-width:1.0;"/><line style="stroke:#181818;stroke-width:1.0;" x1="274.5" x2="505.5" y1="272.3516" y2="272.3516"/><text fill="#000000" font-family="sans-serif" font-size="13" lengthAdjust="spacing" textLength="130" x="281.5" y="267.6094">Assign task to shard</text><polygon fill="#181818" points="674.5,297.6621,684.5,301.6621,674.5,305.6621,678.5,301.6621" style="stroke:#181818;stroke-width:1.0;"/><line style="stroke:#181818;stroke-width:1.0;" x1="511.5" x2="680.5" y1="301.6621" y2="301.6621"/><text fill="#000000" font-family="sans-serif" font-size="13" lengthAdjust="spacing" textLength="151" x="518.5" y="296.9199">Dispatch task to worker</text><line style="stroke:#181818;stroke-width:1.0;" x1="686.5" x2="728.5" y1="330.9727" y2="330.9727"/><line style="stroke:#181818;stroke-width:1.0;" x1="728.5" x2="728.5" y1="330.9727" y2="343.9727"/><line style="stroke:#181818;stroke-width:1.0;" x1="687.5" x2="728.5" y1="343.9727" y2="343.9727"/><polygon fill="#181818" points="697.5,339.9727,687.5,343.9727,697.5,347.9727,693.5,343.9727" style="stroke:#181818;stroke-width:1.0;"/><text fill="#000000" font-family="sans-serif" font-size="13" lengthAdjust="spacing" textLength="80" x="693.5" y="326.2305">Execute task</text><polygon fill="#181818" points="522.5,369.2832,512.5,373.2832,522.5,377.2832,518.5,373.2832" style="stroke:#181818;stroke-width:1.0;"/><line style="stroke:#181818;stroke-width:1.0;" x1="516.5" x2="685.5" y1="373.2832" y2="373.2832"/><text fill="#000000" font-family="sans-serif" font-size="13" lengthAdjust="spacing" textLength="145" x="528.5" y="368.541">Notify task completion</text><polygon fill="#181818" points="285.5,398.5938,275.5,402.5938,285.5,406.5938,281.5,402.5938" style="stroke:#181818;stroke-width:1.0;"/><line style="stroke:#181818;stroke-width:1.0;" x1="279.5" x2="510.5" y1="402.5938" y2="402.5938"/><text fill="#000000" font-family="sans-serif" font-size="13" lengthAdjust="spacing" textLength="145" x="291.5" y="397.8516">Notify task completion</text><polygon fill="#181818" points="149.5,427.9043,139.5,431.9043,149.5,435.9043,145.5,431.9043" style="stroke:#181818;stroke-width:1.0;"/><line style="stroke:#181818;stroke-width:1.0;" x1="143.5" x2="273.5" y1="431.9043" y2="431.9043"/><text fill="#000000" font-family="sans-serif" font-size="13" lengthAdjust="spacing" textLength="112" x="155.5" y="427.1621">Return task result</text><polygon fill="#181818" points="34.5,457.2148,24.5,461.2148,34.5,465.2148,30.5,461.2148" style="stroke:#181818;stroke-width:1.0;"/><line style="stroke:#181818;stroke-width:1.0;" x1="28.5" x2="137.5" y1="461.2148" y2="461.2148"/><text fill="#000000" font-family="sans-serif" font-size="13" lengthAdjust="spacing" textLength="91" x="40.5" y="456.4727">Send response</text><!--SRC=[TL51JWCn3Bpd5TRU-G07fAfmu8AWAyJPPDrkr92aYTDbVqysoQQjAcwMP-oPiL6ozT1z1l8TO82O2k7GivBAeM7eDk-l6K6dRe6jDUojrdLomCE0jun-H3zaC2pLBVXb_R6EJhaKOX67XwT52XwX9pE0frEam69f9IIB96ph2Pc0CHn5wIKmYoJm8vAVGUrB8y28PmA93gNYMHJMrQuT1MTD89WKZnTUMxloUj8a6V2CIkEtfggNpYUB6qFJlPbD2EfWibDWMm_HF9JaYVQiWaEMOoFMcrJ2DVNbbsHSmr_mLV3DijhFPO-qFquJAslkO__3Qm7A4tR4qLVxdaBKxHNvMUrBvOJY3m00]--></g></svg>